<svg xmlns="http://www.w3.org/2000/svg" width="400" height="400" viewBox="0 0 0 0 400 400"><g fill-rule="evenodd"><path d="M97.538 76.294c0 .392-1.031.522-7.377.932-2.992.194-5.465.49-5.575.667-.108.176-1.288.442-2.622.591-3.029.339-4.118.573-4.118.886 0 .135-1.481.476-3.291.758-1.81.282-3.437.626-3.615.765-.179.139-.994.34-1.811.447-.818.106-1.926.394-2.462.638-1.529.698-4.218 1.407-5.338 1.407-.562 0-1.021.134-1.021.298 0 .352-3.067 1.855-3.784 1.855-.959 0-3.776.86-4.916 1.5-.635.357-1.707.737-2.381.844-.675.108-1.227.296-1.227.418s-.588.466-1.308.763c-.719.298-1.654.717-2.077.93-.423.214-1.323.563-2 .774-.677.212-1.507.62-1.846.906-1.003.849-2.076 1.439-3.384 1.862-.677.219-1.34.582-1.472.807-.133.225-.807.561-1.498.747-.691.186-1.543.606-1.894.933-.35.326-.802.593-1.003.593-.201 0-.54.211-.753.468-.214.257-.888.695-1.5.975-.611.279-1.665.943-2.342 1.474-.677.532-1.871 1.262-2.653 1.623-.782.362-1.495.847-1.583 1.078-.089.232-.869.757-1.732 1.167-.864.41-1.57.924-1.57 1.142 0 .218-.312.516-.693.662-.38.147-1.054.593-1.496.993-1.863 1.683-3.199 2.726-3.495 2.728-.174 0-.775.541-1.335 1.202-.561.66-1.342 1.281-1.736 1.38-.43.108-.794.492-.912.963-.108.43-.504.911-.88 1.069-.899.376-1.761 1.073-1.761 1.424 0 .154-.692.828-1.539 1.499-.846.67-1.538 1.371-1.538 1.557 0 .186-.346.524-.769.75-.423.227-.769.595-.769.819 0 .224-.277.58-.616.791-.338.211-.615.554-.615.761 0 .207-.277.525-.616.706-1.295.693 1.295 3.692 3.188 3.692.258 0 .547.128.644.284.096.157.572.372 1.056.478.485.106 1.185.517 1.557.913.372.396 1.324.899 2.116 1.119.792.22 2.11.928 2.929 1.573.819.644 1.668 1.172 1.888 1.172.22 0 1.104.485 1.965 1.077s1.707 1.077 1.881 1.077c.173 0 .315.12.315.267 0 .148.642.448 1.427.668.906.253 1.481.605 1.574.963.081.31.391.563.689.563.298 0 .727.222.952.494.225.271.727.614 1.114.762.388.147.705.451.705.675 0 .224.466.576 1.036.782 1 .361 1.303.579 3.533 2.537.566.497 1.171.904 1.343.904.173 0 .788.416 1.366.923.578.508 1.273.923 1.543.923.56 0 1.641 1.13 1.641 1.715 0 .215.413.481.918.592.899.197 1.503.642 4.104 3.025.707.648 1.736 1.377 2.286 1.62.55.243 1 .647 1 .899 0 .251.191.457.426.457.234 0 .639.325.899.722.26.397.887.894 1.393 1.103.54.224.998.689 1.107 1.124.102.409.357.748.565.753.454.012 2.071 1.389 2.071 1.764 0 .325 1.703 1.611 2.134 1.611.173 0 .529.329.793.732.264.403 1.236 1.336 2.161 2.074.925.737 1.681 1.466 1.681 1.618 0 .411.998 1.093 1.616 1.105.366.006.538.255.538.779 0 .423.139.769.308.769.169 0 .308.145.308.322 0 .43 1.586 1.81 2.095 1.822.221.005.317.148.212.317-.104.17-.043.308.136.308s.326.277.326.615c0 .339.146.616.326.616.179 0 .255.114.169.253-.206.334.921 1.285 1.524 1.285.261 0 .619.416.796.923.177.508.447.923.6.923.152 0 .277.193.277.429s.208.508.462.606c.254.097.461.458.461.802 0 .344.173.625.385.626.682.001 2.299 1.664 2.517 2.589.117.494.758 1.376 1.425 1.96.847.743 1.212 1.312 1.212 1.891 0 .563.295 1.046.923 1.51.507.376.923.855.923 1.067 0 .211.405.827.9 1.369.496.543.99 1.266 1.098 1.607.108.342.326.621.484.621.158 0 .287.246.287.547 0 .301.4.985.89 1.521.489.536.822 1.041.739 1.124-.083.083.126.323.464.534.338.211.549.557.468.768-.081.211.209.618.646.903.44.289.794.812.795 1.177.001.362.277 1.073.613 1.58.337.508.613 1.166.614 1.462.001.296.125.538.276.538.151 0 .361.346.468.769.106.424.322.77.481.77.158 0 .379.486.49 1.08.112.594.326 1.156.476 1.249.15.093.272.429.272.747s.402 1.017.892 1.555c.654.716.947 1.418 1.099 2.634.114.912.336 1.658.493 1.658.157 0 .286.267.286.593 0 .327.191.785.424 1.018.234.234.527 1.032.653 1.773.125.742.418 1.54.652 1.774.233.233.424.683.424.999 0 .317.129.655.287.753.157.097.381.936.497 1.864.116.928.317 1.687.448 1.687.13 0 .336.658.456 1.462.12.804.334 1.533.475 1.62.14.087.354 1.402.475 2.923.121 1.52.338 2.842.482 2.936.144.094.353 1.063.464 2.153.112 1.091.342 2.074.513 2.186.17.111.375 2.018.455 4.238.08 2.219.266 4.109.413 4.2.351.217.347 12.436-.004 12.436-.149 0-.371 1.731-.493 3.846-.122 2.116-.346 3.846-.499 3.846-.152 0-.276.416-.276.924 0 .507.148.923.329.923.182 0 .113.217-.153.483s-.484.681-.484.923-.118.44-.262.44c-.144 0-.357 1.35-.472 3-.116 1.65-.344 3.046-.507 3.102-.164.057-.297.774-.297 1.594 0 .915-.179 1.669-.462 1.952-.254.254-.462.852-.463 1.33-.001.477-.204 1.255-.45 1.727-.247.473-.538 1.338-.648 1.923-.11.585-.314 1.064-.454 1.064s-.348.623-.463 1.385c-.114.761-.33 1.384-.48 1.384-.15 0-.273.198-.273.44s-.184.624-.409.849c-.225.225-.493.928-.596 1.563-.103.635-.369 1.356-.591 1.602-1.1 1.22-1.267 1.553-1.408 2.808-.084.745-.273 1.354-.42 1.354-.148 0-.268.346-.268.769 0 .423-.277 1.046-.615 1.385-.339.338-.616.814-.616 1.058 0 .244-.146.534-.324.644a.498.498 0 0 0-.207.55c.064.192-.001.491-.144.664l-1.025 1.237c-.42.508-.699 1.097-.619 1.308.08.212.012.385-.152.385s-.302.173-.307.384c-.004.212-.407.776-.895 1.255-.488.479-.977 1.226-1.086 1.662-.109.435-.527 1.049-.927 1.364-.4.315-.819.987-.93 1.492-.111.506-.32.92-.464.92-.145 0-.36.305-.478.678-.118.372-.405.867-.636 1.098-.232.232-.421.617-.421.855 0 .239-.346.521-.769.627-.423.106-.77.351-.772.544-.001.193-.187.707-.414 1.141a8.767 8.767 0 0 0-.61 1.582c-.124.493-.482.862-.95.98-.414.103-.838.458-.942.789-.105.33-1.014 1.462-2.021 2.517-1.006 1.054-1.83 2.104-1.83 2.332 0 .228-.208.494-.461.591-.254.098-.462.336-.463.529 0 .194-.415.629-.922.967-.507.339-.922.793-.922 1.01-.001.217-.209.474-.463.571-.253.098-.461.34-.461.538 0 .415-1.091 1.42-1.542 1.42-.167 0-.304.208-.304.461 0 .254-.139.462-.308.462-.169 0-.273.119-.231.264.043.145-.65.959-1.538 1.81-.889.851-1.616 1.702-1.616 1.89 0 .189-.137.344-.305.344-.168 0-1.535 1.211-3.038 2.692-1.502 1.481-3.504 3.315-4.448 4.077-.945.761-1.724 1.487-1.732 1.612-.028.422-1.072 1.465-1.468 1.465-.216 0-.393.138-.393.307 0 .17-.211.308-.469.308-.257 0-1.123.677-1.923 1.504-.8.828-1.801 1.608-2.224 1.734-.423.127-1.53.885-2.461 1.685-.931.801-1.999 1.551-2.374 1.668-1.494.467-1.313 4.213.229 4.751.551.192.917.539.923.873.005.339.513.809 1.307 1.208.715.36 1.343.873 1.396 1.141.107.536 2.672 3.19 4.613 4.772 2.401 1.957 2.829 2.38 2.829 2.794 0 .53.911 1.232 1.615 1.245.296.005.539.194.539.419 0 .226.346.595.769.822.423.226.769.526.769.667 0 .141.208.256.462.256s1.015.553 1.692 1.23c.677.677 1.348 1.231 1.491 1.231.143 0 .51.277.817.616.306.338.7.615.876.615.175 0 .835.554 1.466 1.231.632.677 1.238 1.23 1.348 1.23.11 0 .408.208.661.462.254.254.366.462.248.462-.117 0-.041.207.17.461.211.254.691.462 1.067.462s.934.277 1.241.615c.306.338.69.615.853.615.163 0 .769.416 1.348.923.578.508 1.228.924 1.444.924.216 0 .791.415 1.278.923.486.507 1.049.923 1.25.923.202 0 .532.198.733.441.202.243.778.532 1.279.643.502.11 1.211.603 1.575 1.096.404.546.945.897 1.384.897.396 0 1.406.542 2.245 1.205.838.663 1.928 1.294 2.42 1.402.493.108 1.133.458 1.421.777.289.32.917.667 1.396.772.478.105 1.035.39 1.236.633.202.243.616.441.921.441.305 0 .966.347 1.47.771.504.424 1.342.856 1.863.96.521.104 1.105.381 1.299.614.194.234.488.425.653.425.165 0 .806.221 1.424.493.618.271 1.4.598 1.738.728.339.129.962.384 1.385.566.423.182 1.254.426 1.846.542.593.117 1.469.54 1.947.941.657.551 1.24.73 2.385.73.833 0 1.514.138 1.514.307 0 .17.231.308.512.308.741 0 3.932 1.026 4.052 1.303.057.13.793.235 1.636.235.843 0 2.181.26 2.974.578 3.624 1.45 11.449 2.012 24.057 1.727 12.725-.288 17.693-.654 18.616-1.373.419-.327 4.067-.932 5.622-.932.695 0 1.343-.126 1.439-.282.095-.155 1.246-.517 2.556-.805 1.31-.288 2.659-.635 2.998-.771.338-.137 1.411-.486 2.385-.776.973-.289 1.769-.646 1.769-.792 0-.146.381-.268.846-.27.99-.006 4.571-.798 5.461-1.209.339-.156 1.17-.528 1.847-.827.677-.299 1.305-.65 1.397-.782.092-.131 1.131-.484 2.308-.785 1.177-.301 2.302-.698 2.499-.883.197-.185.82-.515 1.385-.733a49.114 49.114 0 0 0 2.277-.971c.688-.316 1.369-.575 1.514-.575.145 0 .482-.184.749-.409.772-.649 2.86-1.13 4.906-1.13 1.038 0 1.888-.122 1.888-.271 0-1.136 8.413-1.147 10.534-.014.294.157 1.082.285 1.751.285.669 0 1.293.123 1.385.273.093.15.641.362 1.218.47.578.108 1.219.401 1.426.65.207.25.585.454.841.454.255 0 .896.26 1.424.578.527.318 1.513.753 2.19.967.677.213 1.504.576 1.838.806.333.23.965.418 1.403.418.438 0 1.094.277 1.457.615.364.339.939.616 1.278.616.732 0 3.243.78 4.332 1.346.423.219 1.565.583 2.538.806.973.224 1.769.524 1.769.666 0 .142.36.259.799.259.784 0 2.641.854 2.842 1.307.057.127.559.231 1.116.231 1.178 0 5.407.895 5.859 1.241.169.129 1.384.407 2.701.617 1.316.211 2.467.502 2.556.647.09.145.679.264 1.309.264.629 0 3.564.275 6.52.612 10.305 1.172 29.09.719 33.837-.817 1.269-.411 2.9-.829 3.624-.929.723-.1 1.389-.302 1.479-.447.09-.146.606-.269 1.146-.275.54-.005 1.25-.213 1.579-.461.328-.249.988-.452 1.466-.452.477 0 1.108-.134 1.402-.297.294-.164 1.329-.45 2.3-.637.971-.186 1.874-.533 2.007-.769.132-.237 1.191-.63 2.352-.873 1.161-.244 2.197-.567 2.301-.719.299-.433 2.369-1.32 3.083-1.32.355 0 .645-.139.645-.308 0-.169.146-.308.325-.308.564 0 2.943-1.181 3.339-1.657.208-.251.785-.546 1.281-.655.496-.109.902-.324.902-.478 0-.154.564-.37 1.253-.48.882-.141 1.446-.461 1.904-1.08.358-.484.819-.881 1.025-.881.718 0 2.989-1.388 3.128-1.911.077-.29.541-.705 1.03-.922.49-.216.89-.487.89-.602 0-.114.45-.296 1-.404 1.243-.244 2.357-.766 3.135-1.468.328-.296.757-.539.953-.539.195 0 .606-.277.912-.615.307-.339.722-.615.923-.615.202 0 .617-.277.923-.616.307-.338.745-.615.973-.615.229 0 .717-.346 1.085-.769.368-.424.905-.77 1.194-.77.846 0 2.1-.774 3.152-1.948.54-.602 1.362-1.237 1.827-1.411.466-.175.846-.532.846-.795 0-.282.373-.551.917-.66.503-.1 1.074-.374 1.268-.607.194-.234.524-.425.734-.425.21 0 .766-.554 1.235-1.231.469-.677.973-1.23 1.119-1.23.146 0 .266-.145.266-.323 0-.426 1.584-1.809 2.086-1.822.217-.005.476-.222.576-.481.278-.726 1.739-2.297 2.136-2.297.194 0 .669-.461 1.055-1.025.386-.563.992-1.156 1.347-1.318.355-.163.618-.444.584-.625-.034-.181.277-.511.692-.733.415-.222.755-.519.755-.659 0-.141.204-.256.454-.256s.681-.346.959-.769c.277-.423.669-.769.872-.769.395 0 1.903-1.86 1.793-2.212-.036-.117.485-.786 1.159-1.487 1.817-1.891 1.555-3.791-.616-4.46-.984-.303-2.775-1.732-2.775-2.214 0-.204-.568-.542-1.263-.75-.695-.208-1.345-.592-1.445-.852-.215-.563-1.484-1.661-3.335-2.887-.738-.489-1.342-1.083-1.342-1.321s-.104-.435-.231-.438c-.127-.002-.664-.383-1.195-.846-2.21-1.928-2.591-2.226-2.848-2.226-.148 0-.344-.283-.434-.63-.097-.37-.66-.825-1.364-1.101-.899-.353-1.271-.714-1.486-1.442-.159-.535-.566-1.112-.906-1.284-.86-.435-5.365-4.995-5.149-5.212.098-.097.016-.177-.182-.177-.197 0-.364-.173-.37-.384-.007-.212-.63-.869-1.385-1.46-.755-.592-1.373-1.236-1.373-1.431 0-.196-.45-.833-1-1.417-3.125-3.318-4.016-4.373-4.873-5.766-.522-.848-1.066-1.542-1.21-1.542-.143 0-.356-.301-.472-.668-.228-.719-.593-1.233-1.445-2.037-.296-.28-.538-.671-.538-.869 0-.198-.208-.44-.462-.537-.254-.097-.461-.389-.461-.648 0-.26-.124-.472-.275-.472-.151 0-.358-.335-.461-.745-.103-.41-.603-1.161-1.111-1.669-.507-.507-.923-1.187-.923-1.51 0-.323-.339-.769-.754-.991-.415-.222-.92-.834-1.123-1.359a34.328 34.328 0 0 0-.441-1.11c-.04-.085-.174-.466-.297-.846-.124-.381-.335-.693-.468-.693-.338 0-1.84-2.619-1.84-3.208 0-.266-.138-.484-.307-.484-.17 0-.308-.352-.308-.783 0-.431-.312-1.093-.692-1.472-.457-.455-.66-.974-.595-1.525.053-.459-.051-.835-.231-.835-.181 0-.328-.208-.328-.462s-.134-.461-.298-.461c-.164 0-.224-.194-.133-.431s.017-.522-.165-.634c-.413-.256-1.558-2.739-1.558-3.38 0-.263-.139-.478-.308-.478-.169 0-.308-.29-.308-.644 0-.354-.276-.996-.615-1.426-.338-.431-.615-1.179-.615-1.664 0-.485-.13-.882-.289-.882-.159 0-.382-.623-.497-1.384-.114-.762-.319-1.385-.456-1.385-.136 0-.339-.415-.451-.923-.111-.508-.33-.923-.486-.923-.155 0-.283-.429-.283-.954 0-.524-.195-1.39-.434-1.923-.239-.533-.5-1.897-.579-3.032-.093-1.331-.321-2.239-.643-2.56-.274-.274-.498-.823-.498-1.22s-.135-.768-.301-.824c-.166-.056-.395-1.556-.508-3.333-.114-1.779-.359-3.33-.545-3.451-.456-.296-.401-24.841.057-25.123.174-.108.416-1.477.539-3.042.122-1.565.327-2.846.454-2.846.128 0 .332-.923.452-2.052.121-1.129.414-2.246.652-2.483.24-.241.431-1.036.431-1.795 0-.749.121-1.362.268-1.362.148 0 .359-.682.469-1.516.111-.833.345-1.563.521-1.622.176-.058.401-.726.5-1.484.099-.758.309-1.462.465-1.565.157-.102.362-.76.456-1.461.094-.702.292-1.275.439-1.275.146 0 .271-.243.277-.539.006-.296.278-1.092.605-1.769.327-.677.599-1.414.605-1.637.006-.224.218-.615.472-.868.254-.254.462-.877.462-1.385s.173-1.116.384-1.352c.953-1.063 1.154-1.376 1.154-1.802 0-.25.122-.775.271-1.167.149-.392.253-.785.231-.873-.022-.089.274-.499.659-.912.385-.414.632-.93.549-1.147-.084-.218-.018-.395.146-.395.164 0 .298-.212.298-.472 0-.259.208-.551.461-.648.254-.097.462-.439.462-.76 0-.32.153-.582.341-.582.187 0 .272-.179.188-.398-.179-.464.31-1.15 1.17-1.642.335-.192.598-.642.584-1-.013-.359.091-.652.231-.652s.255-.269.255-.598c0-.328.133-.679.294-.779.162-.1.227-.359.143-.575-.083-.217.19-.577.606-.799.416-.223.832-.699.924-1.058.092-.359.518-1.028.947-1.486.428-.458.778-1.109.778-1.448 0-.339.485-1.002 1.077-1.475.593-.473 1.077-1.087 1.077-1.365s.208-.585.462-.682c.254-.098.461-.39.461-.649s.143-.471.318-.471c.174 0 .4-.216.501-.48.18-.468.93-1.441 2.028-2.629.296-.321.538-.721.538-.888 0-.168.277-.478.615-.69.339-.211.616-.558.616-.772 0-.213.106-.387.235-.387.13 0 .695-.701 1.256-1.558.561-.856 1.216-1.633 1.456-1.725.241-.092.437-.351.437-.575 0-.224.417-.705.927-1.068.51-.363.861-.767.78-.897-.081-.131.194-.421.612-.644.417-.224.758-.575.758-.78 0-.206.351-.604.779-.885.429-.281.698-.643.598-.805-.1-.161-.036-.294.144-.294.179 0 .325-.251.325-.558 0-.352.398-.714 1.077-.98.593-.233 1.077-.575 1.077-.761 0-.185.45-.599 1-.919 1.08-.627 2.385-1.886 2.385-2.301 0-.141.311-.469.692-.729.381-.261 1.246-.978 1.923-1.595a67.393 67.393 0 0 1 2.44-2.101c.665-.538 1.524-1.29 1.909-1.671s.845-.693 1.022-.693c.177 0 .322-.184.322-.41 0-.405 2.193-2.349 2.674-2.369.137-.006 1.01-.699 1.941-1.54.931-.842 1.963-1.617 2.293-1.723.737-.236 1.433-.898 1.195-1.137-.097-.096.186-.266.63-.377.443-.112.805-.388.805-.614 0-.388.271-.574 2.662-1.825.533-.279 1.036-.76 1.116-1.069.082-.311.545-.65 1.036-.758.488-.107 1.328-.606 1.867-1.109.538-.503 1.193-.915 1.456-.915.263 0 .478-.122.478-.272 0-.15.466-.494 1.035-.764s1.209-.701 1.422-.958c.214-.257.555-.467.758-.467.204 0 .696-.346 1.093-.769.398-.424.886-.77 1.086-.77.199 0 .723-.333 1.163-.741.44-.408 1.222-.835 1.737-.948.516-.113.937-.333.937-.489 0-.156.14-.283.311-.283.172 0 1.123-.554 2.115-1.231.991-.677 1.947-1.231 2.124-1.231.177 0 .368-.118.425-.261.144-.37 2.413-1.757 3.333-2.038.423-.129 1.012-.449 1.31-.71.556-.489.8-.637 3.057-1.865.729-.397 1.602-.975 1.941-1.285.338-.311.997-.659 1.464-.775 2.557-.635-.664-4.679-9.902-12.431-2.271-1.906-4.299-3.625-4.507-3.819-.208-.195-.899-.77-1.536-1.277a57.915 57.915 0 0 1-2.416-2.073c-.691-.633-1.401-1.152-1.577-1.154-.175-.002-.798-.414-1.384-.915-.586-.5-1.222-.916-1.412-.923-.191-.007-.525-.227-.743-.489-.218-.262-.965-.736-1.661-1.053-.695-.317-1.514-.852-1.818-1.188-.305-.336-.924-.703-1.377-.816-.453-.112-1.101-.455-1.439-.761-.339-.307-.927-.652-1.308-.768-.381-.115-.692-.339-.692-.496 0-.158-.138-.287-.306-.287-.497 0-2.771-1.05-2.771-1.28 0-.116-.519-.381-1.154-.588-.634-.208-1.952-.906-2.929-1.552-.976-.646-2.326-1.34-3-1.542-.673-.201-1.225-.474-1.225-.605s-.311-.335-.692-.453c-.381-.118-1.315-.489-2.077-.826a972.9 972.9 0 0 0-2.461-1.082c-.593-.259-1.158-.594-1.257-.745-.099-.151-1.345-.51-2.769-.797-1.424-.288-2.659-.607-2.744-.71-.084-.103-.984-.442-2-.754-1.015-.311-1.915-.662-2-.778-.084-.117-1.15-.379-2.367-.583-1.218-.204-2.371-.56-2.563-.79-.191-.231-1.133-.578-2.093-.771-.96-.193-1.954-.457-2.207-.586-.254-.129-1.777-.494-3.385-.812-1.608-.318-2.992-.662-3.077-.764-.141-.17-4.416-.76-8.154-1.126-.846-.083-1.68-.265-1.853-.406-1.729-1.405-46.653-1.402-49.332.004-.279.146-2.436.488-4.794.761-2.357.272-4.447.628-4.644.791-.196.163-1.798.521-3.559.797-1.761.275-3.444.622-3.738.772-.295.15-1.459.403-2.587.563-1.129.16-2.134.416-2.234.57-.214.329-1.836.848-3.566 1.14-.676.114-1.308.335-1.404.489-.229.371-3.435 1.198-4.688 1.211-.542.005-1.246.207-1.564.448-.319.241-1.352.599-2.296.795-.944.196-1.999.533-2.344.75a6.586 6.586 0 0 1-1.397.617c-.423.122-.977.395-1.231.606-.253.211-1 .466-1.659.566-.659.101-1.499.466-1.866.811-.368.345-.941.628-1.275.628-.335 0-1.364.283-2.288.629-.925.346-1.923.708-2.219.805-.296.097-.539.298-.539.448 0 .149-.191.272-.424.272-.233 0-.59.201-.794.446-.204.246-1.017.542-1.807.658-.923.136-1.797.526-2.447 1.092-.556.484-1.275.881-1.597.881-.323 0-.67.134-.772.299-.102.165-.698.538-1.326.83-.627.292-1.215.638-1.307.769-.973 1.39-6.356 1.581-7.367.262a2.888 2.888 0 0 0-1.815-1.112c-.612-.106-1.251-.364-1.421-.573-.169-.208-.836-.553-1.483-.766-.646-.213-1.248-.576-1.337-.808-.088-.231-.982-.582-1.986-.779-1.003-.198-1.898-.479-1.989-.625-.09-.147-.365-.267-.61-.267s-.994-.397-1.664-.882c-.67-.485-2.054-1.068-3.075-1.294-1.02-.227-1.856-.511-1.856-.631s-.657-.462-1.461-.759-1.6-.639-1.769-.76c-.17-.121-1.139-.397-2.154-.612-1.016-.216-2.1-.609-2.411-.875-.31-.265-1.407-.654-2.438-.864-1.03-.211-1.954-.503-2.051-.65-.097-.148-.626-.356-1.175-.462-.549-.107-1.579-.475-2.289-.818-.71-.343-1.662-.623-2.117-.623-.455 0-1.415-.208-2.135-.462-.719-.254-1.637-.461-2.038-.461-.402 0-.731-.117-.731-.259 0-.142-1.004-.441-2.231-.665-1.227-.223-2.378-.518-2.558-.655-.181-.137-1.15-.337-2.154-.445-1.005-.107-2.38-.439-3.057-.736-1.176-.515-8.118-1.57-10.242-1.555-.555.004-1.317-.19-1.692-.43-.487-.313-2.261-.497-6.22-.647-3.722-.141-5.831-.351-6.432-.64-1.076-.518-24.799-.648-24.799-.136m244.847 45.746c1.074.288.82.919-.597 1.486-.709.284-1.436.688-1.615.898-.655.768-4.111 3.576-4.401 3.576-.163 0-.642.312-1.063.692a48.93 48.93 0 0 1-1.926 1.616 35.195 35.195 0 0 0-1.664 1.397c-.277.26-1.404 1.227-2.504 2.147-1.1.92-2.873 2.541-3.941 3.603-1.068 1.061-2.141 1.93-2.385 1.93-.244 0-.443.128-.443.284 0 .383-3.01 3.408-3.391 3.408-.166 0-.301.212-.301.471s-.203.549-.45.644c-.247.095-.534.437-.636.76-.103.322-.306.586-.452.586-.146 0-1.649 1.385-3.34 3.077-1.691 1.693-3.207 3.077-3.368 3.077-.161 0-.376.416-.477.923-.102.508-.366.923-.586.923-.474 0-2.383 1.951-2.383 2.435a.328.328 0 0 1-.318.335c-.174 0-.405.242-.512.538-.107.296-.717 1.06-1.356 1.697-.638.638-1.244 1.421-1.345 1.741-.102.32-.388.66-.635.755-.247.095-.45.384-.45.644 0 .259-.129.471-.287.471-.158 0-.365.242-.46.538-.095.296-.588.816-1.096 1.154-.509.339-.925.858-.925 1.154-.001.296-.14.538-.309.538-.169 0-.307.206-.307.456 0 .251-.485.955-1.077 1.565-.593.61-1.077 1.293-1.077 1.519 0 .225-.109.455-.242.512-.546.231-2.277 2.702-2.153 3.073.074.22-.328.876-.892 1.457-.564.58-.966 1.114-.894 1.186.071.072-.067.361-.309.643-.241.282-.464.651-.496.82-.031.169-.302.571-.602.893-.3.322-.472.703-.384.846.089.144.025.261-.143.261-.168 0-.402.305-.521.678-.118.373-.404.868-.636 1.099-.231.232-.421.619-.421.861 0 .241-.138.439-.307.439-.17 0-.308.272-.308.605 0 .332-.277.752-.615.934-.339.181-.616.532-.616.78s-.138.45-.307.45c-.17 0-.31.312-.312.693-.008 1.253-.345 1.995-1.087 2.392-.532.284-.786.757-.932 1.73-.111.737-.308 1.339-.439 1.339-.132 0-.329.479-.438 1.064-.111.588-.54 1.331-.959 1.661-.531.417-.818 1.023-.954 2.013-.107.779-.314 1.416-.46 1.416-.146 0-.266.175-.266.389 0 .214-.277.906-.615 1.538-.338.631-.615 1.297-.615 1.479 0 .181-.208.538-.462.792s-.466.832-.471 1.286c-.006.453-.213 1.093-.462 1.421-.248.329-.452.97-.452 1.426 0 .456-.206 1.226-.459 1.711-.253.485-.461 1.123-.462 1.42-.001.296-.124.538-.274.538-.15 0-.367.623-.481 1.385-.114.761-.324 1.384-.467 1.384-.143 0-.356.693-.472 1.539-.116.846-.317 1.538-.445 1.538-.129 0-.323 1.059-.433 2.353-.109 1.294-.342 2.526-.517 2.737-.175.211-.406 1.124-.513 2.028-.107.905-.38 1.829-.605 2.055-.249.249-.41 1.125-.41 2.234 0 1.003-.123 1.824-.274 1.824-.151 0-.375 2.7-.499 6-.132 3.519-.349 6-.524 6-.169 0-.253.731-.193 1.693.058.931.002 1.692-.125 1.692-.475-.001-.266 10.913.221 11.556.319.423.454 1.43.461 3.444.006 1.565.114 2.846.241 2.845.127 0 .184.831.126 1.846-.059 1.044.024 1.847.191 1.847.162 0 .36 1.034.441 2.297.082 1.263.307 2.488.502 2.723.195.235.443 1.314.551 2.396.108 1.083.299 2.107.424 2.276.125.17.327 1.139.449 2.154.121 1.016.331 1.985.464 2.154.134.169.341.896.459 1.614.119.718.342 1.384.496 1.48.155.095.281.619.281 1.163 0 .545.189 1.264.419 1.598.231.333.516 1.264.635 2.068.118.804.345 1.462.504 1.462.158 0 .288.336.288.747s.204.951.453 1.2c.25.249.544 1.021.655 1.715.111.693.323 1.261.47 1.261.148 0 .269.289.269.644 0 .354.277.995.615 1.426.338.43.615 1.179.615 1.664 0 .484.139.881.308.881.169 0 .308.224.308.498s.484 1.296 1.077 2.271c.592.975 1.077 2.136 1.077 2.579 0 .443.138.806.307.806.17 0 .308.212.308.471s.204.55.453.645c.249.096.548.677.663 1.291.115.614.396 1.302.624 1.53.227.228.414.612.414.854s.136.44.302.44c.166 0 .388.346.495.769.106.423.316.769.467.769.151 0 .274.281.274.625s.199.702.442.795c.244.093.373.352.287.575-.085.222-.007.496.173.608.181.111.329.517.329.902 0 .428.294.856.759 1.105.417.223.699.503.626.621-.073.118.112.478.412.8.3.321.571.723.602.892.032.17.235.516.453.77.217.253.433.6.479.769.199.731 1.292 2.307 1.6 2.307.185 0 .259.125.165.277-.094.152.173.602.592 1 .42.398.765.897.768 1.108.003.212.283.662.621 1 .338.339.615.823.615 1.077s.139.462.308.462c.169 0 .308.198.308.44 0 .243.277.529.615.636.339.108.616.292.616.409 0 .117.329.568.731 1.002.402.433.817 1.06.923 1.392.105.333.815 1.264 1.576 2.07.762.807 1.385 1.644 1.385 1.86 0 .217.344.578.764.803.42.225.845.664.944.975.099.312.309.566.467.566.157 0 .286.201.286.447 0 .245.185.557.41.692.225.135.947.973 1.604 1.861.657.889 1.304 1.616 1.437 1.616s.242.219.242.488.415.645.924.837c.508.192 1.002.595 1.097.896.096.302.299.548.451.548.153 0 .198.207.102.459-.107.279.047.535.394.652.314.107 1.574 1.234 2.801 2.504 3.369 3.49 3.009 4.395-1.572 3.945-1.209-.118-5.843-.32-10.3-.449-5.012-.145-8.18-.356-8.307-.554-.116-.18-2.212-.418-4.799-.544-2.526-.123-4.924-.349-5.328-.503-.404-.154-1.417-.279-2.252-.279-.836 0-1.519-.119-1.519-.263 0-.145-.865-.354-1.923-.465-4.733-.496-6.781-.809-7.117-1.088-.198-.164-1.622-.502-3.164-.751-1.542-.248-3.147-.675-3.565-.95-.419-.274-1.715-.587-2.881-.696-1.189-.111-2.524-.445-3.042-.761-.508-.309-1.133-.563-1.389-.564-.257 0-.949-.258-1.539-.573-.59-.315-1.418-.678-1.841-.806-1.382-.42-4.616-2.064-4.616-2.346 0-.152-.34-.276-.755-.276-.722 0-2.322-1.267-2.322-1.839 0-.15-.305-.37-.678-.488-.373-.119-.839-.37-1.036-.559-2.433-2.338-4.197-2.625-7.047-1.145-1.01.525-2.066.954-2.346.954-.281 0-.682.208-.893.462-.215.259-.886.461-1.53.461-1.123 0-3.088.527-3.393.91-.084.106-1.469.453-3.077.771-1.607.318-3.131.678-3.384.801-.631.303-3.182.828-5.231 1.075-.931.113-1.851.332-2.044.488-.194.157-2.062.485-4.152.73-2.09.245-3.847.586-3.905.758-.133.399-17.038.431-17.453.033-.161-.154-1.538-.344-3.062-.422-3.626-.187-8.568-.822-8.766-1.127-.231-.356-4.022-1.247-5.304-1.247-.61 0-1.155-.136-1.212-.302-.056-.166-.856-.444-1.776-.619-.921-.174-1.975-.513-2.342-.754-.367-.24-1.483-.672-2.48-.96-.996-.288-1.881-.616-1.966-.73-.084-.113-.707-.451-1.384-.751-.677-.3-1.658-.762-2.18-1.027-1.241-.629-3.675-.313-4.212.548-.205.327-.511.595-.682.596-.367.002-2.311 1.773-2.311 2.105 0 .126-.623.486-1.385.8-.761.314-1.385.654-1.387.755-.003.238-1.539.954-2.045.954-.212 0-.879.334-1.481.743-.602.409-1.639.835-2.304.947-.665.112-1.358.384-1.54.603-.182.22-.986.577-1.787.793-.8.217-1.594.496-1.763.62-.169.124-1.163.323-2.208.441-1.276.145-2.076.409-2.433.804-.31.342-.938.588-1.504.588-1.349 0-4.553.613-4.962.949-.185.153-1.847.509-3.692.791-1.845.283-3.424.608-3.509.724-.085.116-1.261.299-2.615.407-6.438.511-9.518.855-9.822 1.098-.183.146-5.594.437-12.024.646-6.431.209-12.108.398-12.616.421-1.18.052-1.602-1.572-.484-1.864.351-.092.638-.359.638-.593 0-.234.208-.426.462-.426.253 0 .461-.103.461-.23.001-.319 2-2.539 2.287-2.539.383 0 2.069-1.285 1.903-1.451-.196-.196.154-.618 2.502-3.021 1.058-1.083 1.923-2.113 1.923-2.289 0-.582 3.498-4.316 4.044-4.316.145 0 .264-.291.264-.646 0-.355.485-1.131 1.077-1.723.592-.592 1.077-1.142 1.077-1.222 0-.08.173-.331.385-.558.211-.227.73-.87 1.153-1.429.424-.559.992-1.243 1.264-1.521.271-.277.578-.836.682-1.241.104-.405.512-1.083.907-1.506.395-.423.81-1.011.923-1.308.113-.296.348-.538.522-.538.175 0 .318-.212.318-.471s.207-.551.46-.648c.252-.097.383-.3.289-.452-.093-.151-.023-.275.156-.275s.326-.277.326-.616c0-.338.154-.615.343-.615.192 0 .273-.271.183-.615-.089-.339-.07-.616.041-.616.441-.001 1.928-1.514 1.865-1.898-.102-.615.38-1.59 1.009-2.042.307-.221.559-.591.559-.821 0-.23.103-.464.23-.521.356-.158 1.616-2.625 1.616-3.163 0-.263.129-.478.287-.478.158 0 .382-.301.499-.67.117-.368.542-1.024.944-1.458.402-.434.816-1.24.919-1.792.104-.551.294-1.003.423-1.003.128 0 .322-.554.431-1.231.108-.677.318-1.23.467-1.23.149 0 .362-.363.473-.807.111-.443.403-1.007.649-1.253.245-.245.446-.713.446-1.039 0-.327.128-.594.283-.594.156 0 .375-.414.486-.919.111-.506.329-.999.486-1.095.156-.097.284-.514.284-.927 0-.413.277-1.028.615-1.366.339-.339.615-.824.615-1.077 0-.254.126-.462.279-.462.154 0 .379-.727.5-1.615.122-.889.411-1.889.644-2.223.233-.333.424-.853.424-1.153 0-.301.133-.547.297-.547.163 0 .389-.693.501-1.539.112-.846.306-1.538.43-1.538s.299-.918.389-2.039c.09-1.121.332-2.143.538-2.27.205-.127.445-.871.534-1.653.088-.783.296-1.423.462-1.423.167 0 .242-.415.168-.923-.075-.508-.021-.923.119-.923.139 0 .254-.407.254-.905 0-.498.151-.999.336-1.113.186-.114.286-.745.223-1.403-.063-.657-.006-1.194.125-1.194s.239-.408.239-.905c0-.498.12-.98.267-1.071.147-.09.367-1.31.489-2.71s.362-2.715.534-2.922c.171-.208.262-1.004.201-1.77-.061-.765-.006-1.392.122-1.392s.233-5.746.233-12.769c0-8.782-.102-12.769-.326-12.769-.179 0-.246-.129-.149-.287.098-.157.037-.373-.135-.479-.172-.107-.313-1.016-.313-2.022 0-1.005-.104-1.827-.231-1.827-.127.001-.186-1.073-.132-2.385.081-1.994.003-2.486-.476-2.991a1.72 1.72 0 0 1-.447-1.463c.069-.473-.01-1.031-.177-1.241-.167-.21-.403-.936-.524-1.613-.122-.677-.33-1.369-.463-1.538-.132-.17-.31-1.328-.395-2.574-.085-1.246-.291-2.354-.458-2.461-.167-.108-.401-.854-.519-1.658-.119-.803-.337-1.461-.486-1.461-.148 0-.363-.623-.477-1.385-.114-.761-.315-1.384-.446-1.384-.13 0-.336-.658-.456-1.462-.121-.804-.349-1.542-.508-1.64-.158-.099-.376-.72-.484-1.382-.107-.662-.379-1.388-.604-1.613-.225-.225-.409-.676-.409-1.002 0-.327-.124-.594-.275-.594-.15 0-.361-.346-.467-.769-.106-.423-.317-.769-.468-.769-.151 0-.368-.554-.483-1.231-.114-.677-.334-1.231-.488-1.231-.154 0-.281-.35-.281-.779 0-.428-.191-.852-.425-.942-.234-.089-.515-.722-.624-1.405-.109-.683-.402-1.446-.652-1.695-.249-.25-.453-.72-.453-1.047 0-.326-.138-.593-.307-.593-.17 0-.308-.198-.308-.44s-.189-.629-.421-.86c-.231-.232-.518-.726-.636-1.099s-.344-.678-.502-.678c-.158 0-.287-.417-.287-.926 0-.546-.253-1.143-.616-1.453-.338-.29-.615-.773-.615-1.074 0-.301-.138-.547-.308-.547-.169 0-.307-.278-.307-.619 0-.34-.277-.855-.616-1.145-.338-.29-.615-.689-.615-.887 0-.198-.208-.44-.462-.537-.253-.098-.461-.459-.461-.802 0-.344-.147-.626-.326-.626-.179 0-.24-.138-.136-.307.105-.169.044-.308-.135-.308-.18 0-.326-.193-.326-.429 0-.235-.208-.508-.462-.605-.254-.098-.461-.444-.461-.77 0-.325-.208-.671-.462-.769-.254-.097-.461-.389-.461-.648s-.147-.471-.326-.471c-.179 0-.246-.13-.148-.289.098-.159-.367-.845-1.034-1.525-.666-.681-1.311-1.548-1.431-1.928-.121-.38-.409-.88-.64-1.112-.232-.232-.421-.595-.421-.809 0-.213-.344-.571-.765-.796-.42-.225-.84-.651-.934-.947-.094-.295-.373-.615-.621-.71-.247-.095-.45-.454-.45-.798 0-.343-.138-.625-.307-.625-.17 0-.308-.206-.308-.459 0-.252-.42-.833-.934-1.291-.514-.458-1.343-1.497-1.843-2.31s-1.101-1.478-1.334-1.478c-.234 0-.754-.484-1.157-1.075s-.836-1.076-.963-1.077c-.127-.001-.231-.198-.231-.438 0-.239-.623-1.104-1.384-1.922-.762-.818-1.385-1.591-1.385-1.718 0-.128-.201-.232-.446-.232s-.557-.186-.692-.413c-.136-.227-.627-.658-1.093-.958-.465-.3-.846-.723-.846-.939 0-.216-.207-.473-.461-.57-.254-.098-.467-.355-.473-.572-.007-.216-.622-.871-1.367-1.455-.745-.583-1.431-1.364-1.524-1.735-.097-.386-.499-.757-.941-.868-.425-.107-.772-.378-.772-.602 0-.611-1.02-1.669-1.949-2.022-.451-.172-.82-.523-.82-.781s-.104-.471-.231-.472c-.127-.002-1.062-.76-2.077-1.685s-1.95-1.686-2.077-1.69c-.127-.004-.231-.222-.231-.484 0-.263-.484-.68-1.077-.927-.592-.248-1.077-.597-1.077-.776 0-.43-.787-1.205-1.225-1.205-.522 0-2.467-1.637-2.467-2.076a.387.387 0 0 0-.387-.385c-.214 0-.561-.277-.772-.615-.212-.339-.566-.616-.788-.616-.222 0-.852-.4-1.401-.89-2.175-1.943-3.847-3.274-4.36-3.474-.297-.115-.791-.633-1.097-1.152-.378-.64-.88-1.003-1.568-1.132-.99-.186-1.284-.532-.737-.87.395-.244 9.956.431 10.332.73.317.252 1.879.451 6.47.823 1.354.11 2.6.302 2.77.427.437.322 3.051.86 5.308 1.093 1.058.109 2.001.323 2.095.475.094.153.576.278 1.07.278 1.263 0 5.954.964 6.152 1.265.091.136 1.545.475 3.231.753 1.687.277 3.413.68 3.836.896.423.215 1.323.567 2 .783.677.216 1.3.476 1.385.578.084.103 1.123.433 2.307.735 1.185.302 2.2.683 2.257.847.056.163.404.297.772.297s1.043.346 1.499.769c.503.466 1.195.769 1.756.769.97 0 3.036.828 3.562 1.427.17.193.835.443 1.478.556.644.113 1.247.405 1.341.65.094.244.353.444.575.444.223 0 .817.346 1.32.769.502.423 1.125.77 1.384.77.259 0 .882.346 1.385.769.503.423 1.117.769 1.365.769s.981.359 1.628.798c.647.439 1.497.921 1.889 1.07.392.149.712.458.712.688 0 .229.381.613.846.853.466.24.916.506 1 .591.085.085.535.351 1 .591.466.24.847.596.847.791 0 .196.519.625 1.153.955.666.345 1.35 1.019 1.616 1.591.254.546.842 1.166 1.308 1.377.465.211.846.534.846.718 0 .184.346.52.769.746.423.227.769.601.769.831 0 .231.208.499.462.596.254.098.461.435.461.749 0 .315.277.72.616.901.338.181.615.532.615.78s.138.451.308.451c.169 0 .307.267.307.593 0 .327.218.811.484 1.077.266.266.37.488.231.494-.139.006.074.283.473.615.4.333.621.606.492.606-.218 0 .013.222 1.646 1.584 1.136.946 1.849.979 2.858.13.517-.435 1.125-.791 1.351-.791.225 0 1.08-.525 1.899-1.167.819-.641 2.563-1.7 3.874-2.352 1.312-.652 2.385-1.293 2.385-1.425 0-.132.519-.407 1.154-.612.634-.205 1.386-.615 1.67-.911.285-.296 1.219-.707 2.077-.913.858-.206 1.56-.499 1.56-.651 0-.152.329-.277.732-.277.402 0 .904-.208 1.114-.462.211-.253.557-.461.77-.461.212 0 .549-.197.749-.438.2-.241 1.048-.613 1.884-.827.836-.215 1.52-.496 1.52-.626 0-.129.52-.33 1.154-.446.635-.115 1.5-.444 1.923-.73.423-.286 1.566-.692 2.539-.902.973-.211 1.769-.496 1.769-.635 0-.318 4.034-1.242 5.422-1.242.572 0 1.04-.139 1.04-.308 0-.169.338-.308.751-.308s.826-.122.918-.271c.092-.149 1.381-.371 2.865-.494 1.483-.123 2.766-.334 2.85-.468.458-.728 16.968-.753 17.539-.027.37.471 1.986.95 3.849 1.141 1.108.113 2.088.325 2.178.47.089.146.484.265.876.265.636 0 1.862.403 3.712 1.223.339.15 1.377.447 2.308.661.931.214 2.454.901 3.384 1.528.931.626 2.247 1.313 2.923 1.526.677.213 1.77.746 2.429 1.186 1.907 1.272 2.46 1.559 3.016 1.563.286.003.76.409 1.051.904.346.584.871.962 1.503 1.08.537.101 1.65.799 2.487 1.561.833.758 1.826 1.464 2.207 1.568.381.104.692.279.692.389 0 .109.381.368.846.574.466.206 1.4.927 2.077 1.603 1.832 1.829 2.535 1.631 4.923-1.387.508-.641 1.166-1.418 1.462-1.727.296-.308.538-.768.538-1.022 0-.253.139-.461.308-.461.169 0 .308-.207.308-.459s.277-.632.615-.843c.338-.212.615-.569.615-.794 0-.225.173-.604.385-.841a26.11 26.11 0 0 0 1-1.244c.338-.447.885-1.039 1.215-1.316.33-.277 1.221-1.161 1.981-1.965.76-.803 1.564-1.461 1.785-1.461.222 0 .404-.265.404-.59 0-.359.36-.749.923-.998.507-.225.923-.513.923-.641s.197-.233.438-.233.849-.346 1.352-.769c.503-.423 1.032-.772 1.177-.775.145-.003.81-.483 1.478-1.066.668-.583 1.603-1.145 2.077-1.249.474-.104.862-.295.862-.423 0-.31 1.424-.948 2.115-.948.301 0 .854-.327 1.229-.726.374-.399 1.645-1.113 2.823-1.587 1.177-.474 2.141-.957 2.141-1.072 0-.253 1.813-.793 3.615-1.078.72-.114 1.308-.333 1.308-.488 0-.154.184-.28.41-.28.225 0 1.086-.343 1.913-.762.827-.418 2.477-1.006 3.667-1.305 1.19-.299 2.233-.635 2.318-.746.084-.112.984-.433 2-.714 1.015-.281 2.123-.632 2.461-.779.339-.147 1.1-.345 1.693-.439 4.318-.685 5.069-.838 5.217-1.063.215-.325 4.923-1.269 6.332-1.269.591 0 1.315-.127 1.609-.283.294-.155 2.057-.513 3.919-.796 1.861-.282 3.523-.625 3.692-.762.169-.136 1.485-.337 2.923-.446 5.52-.419 6.621-.55 6.782-.811.091-.148 2.791-.423 6-.611 3.208-.189 5.891-.401 5.962-.471.193-.193 2.853-.145 3.641.066" fill="#94c43c"/><path d="M232.308 5.837c-.423.135-1.185.469-1.693.741-.507.272-1.13.498-1.384.502-.254.004-.788.351-1.186.771-.399.421-.918.764-1.154.764-.236 0-.429.117-.429.26 0 .142-.511.523-1.134.846-1.148.594-1.387.764-2.988 2.133-.49.419-1.079.761-1.308.761-.229 0-.417.139-.417.308a.309.309 0 0 1-.307.308c-.17 0-.564.242-.878.538-.313.296-1.04.927-1.615 1.401-3.754 3.097-7.472 6.662-7.776 7.455-.104.27-.328.405-.498.299-.171-.105-.31-.066-.31.086 0 .405-2.819 3.311-3.125 3.221-.143-.043-.26.145-.26.417 0 .643-1.399 2.305-1.707 2.027-.13-.117-.158.007-.062.277.101.283-.067.665-.396.902-.314.227-.501.525-.416.664.086.138.025.251-.134.251-.16 0-.378.243-.485.539-.319.884-.963 1.874-1.902 2.929-.487.546-.819 1.024-.738 1.061.081.037-.074.326-.345.642-.271.316-.585.944-.698 1.394-.113.451-.341.82-.507.82-.166 0-.302.267-.302.593 0 .327-.21.803-.466 1.059-.256.256-.551.892-.655 1.413-.104.521-.31 1.022-.457 1.113-.148.091-.268.425-.268.741s-.187.762-.415.99c-.227.228-.511.93-.629 1.56s-.347 1.146-.509 1.146c-.161 0-.293.284-.293.631 0 .347-.195 1.006-.432 1.465-.238.46-.53 1.491-.651 2.293-.12.802-.332 1.457-.472 1.457-.139 0-.253.243-.252.539.003 1.196-.447 3.154-.725 3.154-.166 0-.25.681-.19 1.538.058.847-.01 1.539-.151 1.539s-.21.901-.154 2.004c.078 1.509.008 1.967-.281 1.856-.458-.177-.568 6.144-.112 6.426.15.092.366.662.479 1.266.204 1.087 1.184 2.409 1.53 2.063.099-.099.18.055.18.341 0 .286.349.653.777.816.427.162.848.482.936.709.087.228.845.601 1.684.83.839.228 1.526.529 1.526.667 0 .139 1.384.252 3.077.252 1.846 0 3.077-.123 3.077-.307 0-.17.268-.308.597-.308.328 0 .683-.138.787-.308.105-.169.458-.307.785-.307s.768-.277.979-.616c.211-.338.559-.615.772-.615.213 0 .387-.157.387-.349 0-.192.381-.676.847-1.076.827-.711.848-.811.955-4.651.066-2.331.244-4.007.439-4.129.181-.113.391-1.429.468-2.923.077-1.495.276-2.805.442-2.911.165-.106.373-.833.461-1.615.089-.783.281-1.423.428-1.423.148 0 .268-.336.268-.747s.208-.955.462-1.209c.253-.254.461-.88.461-1.391 0-.544.211-1.048.508-1.214.328-.184.447-.516.336-.939-.094-.359-.061-.654.073-.654s.471-.479.749-1.064c.277-.585.624-1.137.769-1.227.146-.09.356-.65.467-1.244.112-.594.322-1.08.467-1.08.145 0 .413-.381.597-.846.379-.965.777-1.621 1.906-3.153.437-.593.883-1.321.99-1.617.108-.296.339-.538.513-.538.175 0 .317-.177.317-.393 0-.441 1.074-1.453 1.542-1.453.168 0 .305-.205.305-.456s.484-.955 1.077-1.565c.592-.61 1.076-1.201 1.076-1.313 0-.331 4.014-3.876 4.67-4.125.33-.126.514-.368.409-.539-.105-.17-.076-.31.065-.31.142 0 .713-.415 1.268-.923.556-.508 1.157-.923 1.336-.923.286 0 1.382-.815 3.099-2.303.296-.256.652-.466.79-.466.139 0 .553-.347.921-.77.368-.423.88-.769 1.137-.769.628 0 1.693-.617 2.52-1.461.374-.381.815-.693.981-.693.166 0 .389-.277.497-.615.107-.339.324-.615.482-.615.158 0 .287-.208.287-.462s.133-.462.296-.462c1.949 0 .488-8.614-1.552-9.148-.313-.082-.653-.41-.754-.73-.102-.32-.522-.666-.934-.77-.413-.103-1.263-.45-1.891-.77-1.211-.617-5.285-.785-6.857-.283M55.927 85.448c.382.074.936.071 1.23-.006.295-.077-.019-.137-.695-.134-.677.004-.918.067-.535.14M166.41 198.102c-.96.478-2.114 1.308-2.566 1.845-.452.537-1.017.976-1.256.976-.239 0-.434.127-.434.282 0 .155-.422.674-.937 1.154-.989.92-4.294 5.681-4.294 6.186 0 .162-.252.625-.561 1.029-.682.892-2.52 5.435-2.518 6.225.001.312-.188.935-.42 1.384-2.654 5.139-2.715 13.48-.127 17.326.302.449.549 1.048.549 1.331 0 .702 4.459 4.927 5.991 5.676 4.534 2.218 6.83 2.765 11.086 2.637 4.086-.122 9.092-1.487 10.769-2.935.339-.293.908-.62 1.266-.728.357-.109 1.314-1.024 2.125-2.036.811-1.011 1.589-1.839 1.728-1.839.14 0 .349-.38.464-.846.115-.465.527-1.331.915-1.923.389-.592.8-1.7.915-2.461.116-.762.341-1.552.501-1.755.694-.882-.952-11.431-1.956-12.538-.146-.16-.266-.576-.267-.923-.002-.347-.278-1.046-.614-1.554-.336-.507-.612-1.136-.613-1.396-.002-.484-.941-2.488-1.479-3.156-.164-.204-.396-.827-.515-1.384-.119-.558-.551-1.374-.959-1.815-.408-.44-.741-.918-.741-1.063 0-.144-.213-.505-.474-.801-.26-.296-1.126-1.323-1.923-2.283-4.269-5.137-9.237-6.816-13.655-4.615m55.063-.111c-.797.41-2.143 1.294-2.991 1.964-.848.67-1.651 1.266-1.784 1.324-.305.133-2.236 2.591-2.236 2.846 0 .104-.554 1.001-1.231 1.993-.677.991-1.231 1.901-1.231 2.021 0 .121-.465 1.012-1.032 1.981-.568.969-1.271 2.479-1.562 3.356-.292.876-.65 1.668-.796 1.758-.147.091-.353.819-.459 1.619-.106.8-.321 1.732-.478 2.07-1.98 4.284-1.966 12.563.027 15.295.334.459.608.994.608 1.19 0 .197.415.83.923 1.408.507.578.923 1.185.923 1.349 0 .163.198.297.44.297.243 0 .715.384 1.05.854.334.47 1.209 1.17 1.944 1.555.734.385 1.75.942 2.258 1.237 2.562 1.494 8.767 2.471 12.308 1.938 2.233-.336 5.787-1.264 6-1.567.084-.121.911-.624 1.837-1.119 1.924-1.027 5.727-4.467 6.039-5.462.115-.367.463-.993.773-1.391.311-.398.658-1.216.771-1.817.113-.602.392-1.453.621-1.892.47-.901.543-4.728.126-6.644a308.91 308.91 0 0 1-.785-3.818c-.511-2.558-1.894-6.538-2.789-8.028-.254-.423-.937-1.756-1.516-2.962-.58-1.206-1.544-2.834-2.143-3.618-.598-.784-1.088-1.54-1.088-1.679 0-.14-.412-.658-.915-1.152-.503-.493-.918-1.067-.923-1.275-.004-.208-.527-.645-1.162-.97-.635-.326-1.49-.952-1.9-1.391-.41-.44-.895-.804-1.077-.81-.182-.006-.885-.278-1.561-.605-1.845-.891-5.104-.823-6.989.145m-36.55 82.585c-5.715 1.891-8.263 8.098-5.556 13.537.137.276.423 1.056.635 1.733 1.02 3.254 5.04 8.153 6.69 8.154.212 0 .385.138.385.308 0 .169.346.307.769.307.423 0 .769-.104.769-.232s.422-.42.938-.648c1.729-.765 5.216-4.495 5.216-5.579 0-.182.195-.638.434-1.013.851-1.339 2.335-6.673 2.335-8.395 0-5.428-7.069-10.008-12.615-8.172m19.431.328c-6.079 2.254-7.485 8.424-3.703 16.248 1.538 3.183 4.302 6.304 5.946 6.717.433.109.788.321.788.472 0 .332 1.137.37 1.282.044.056-.127.781-.573 1.61-.991 4.731-2.383 8.703-13.007 6.648-17.782-1.833-4.262-7.774-6.487-12.571-4.708" fill="#541c0d"/><path d="M115.077.326c-.592.145-2.526.416-4.297.602-1.771.185-3.363.446-3.538.58-.176.133-1.496.49-2.934.792-1.439.302-2.962.694-3.385.871-.423.177-1.461.492-2.308.7-1.843.455-5.181 1.659-6.461 2.331-.508.267-1.45.58-2.093.697-.644.117-1.247.412-1.341.656-.094.245-.368.445-.609.445s-1.437.485-2.658 1.077c-1.221.592-2.377 1.077-2.568 1.077-.192 0-.502.185-.689.411-.188.226-.89.592-1.56.813-.671.221-1.286.576-1.368.789-.081.212-.642.55-1.246.749-.605.199-1.099.473-1.099.609s-.45.425-1 .643c-.55.218-1.575.856-2.278 1.418-.703.562-1.641 1.16-2.085 1.329-.444.169-.896.551-1.006.85-.11.298-.383.653-.608.789-.594.358-.551 4.028.054 4.633.254.254.462.658.462.898 0 .47 2.014 2.684 2.443 2.684.142 0 .345.343.45.762.185.738 1.216 1.988 4.26 5.164.804.839 1.462 1.64 1.462 1.779 0 .14.242.337.538.439.297.102 1.081.873 1.743 1.713.662.84 1.35 1.528 1.528 1.528.178 0 .605.273.949.607a41.307 41.307 0 0 0 1.78 1.57c.635.53 1.154 1.154 1.154 1.387 0 .233.346.511.769.617.424.106.77.317.77.468 0 .15.138.274.307.274.17 0 .564.242.877.538 1.033.977 2.037 1.761 2.724 2.127.373.198.857.508 1.077.689 1.714 1.412 2.385 1.877 2.707 1.877.205 0 .891.41 1.524.911 1.033.818 2.878 1.811 7.091 3.815.762.362 1.454.728 1.539.812.224.224 2.181.958 3.077 1.154.423.093.851.294.951.446.1.153 1.06.483 2.134.733 1.074.251 2.1.57 2.28.709.47.365 3.055.961 5.556 1.281 1.186.152 2.779.417 3.54.589 3.839.867 18.529.575 19.135-.379.132-.209.243-.288.245-.177.003.11.732.018 1.62-.206.889-.224 2.584-.5 3.768-.613 1.184-.113 2.232-.335 2.329-.492.098-.158 1.068-.438 2.156-.622 1.088-.185 2.255-.506 2.593-.714.339-.209 1.689-.63 3-.936 1.312-.306 2.385-.653 2.385-.77 0-.117.589-.382 1.308-.589a22.78 22.78 0 0 0 2.612-.972c.717-.328 1.566-.596 1.885-.596.32 0 .748-.2.951-.445.203-.245.982-.679 1.73-.965.748-.286 1.36-.612 1.36-.725 0-.112.693-.454 1.539-.758s1.538-.645 1.538-.758c0-.112.692-.45 1.539-.751.846-.3 1.538-.667 1.538-.816 0-.148.623-.507 1.385-.798.761-.291 1.384-.631 1.384-.757 0-.125.761-.556 1.69-.958.929-.402 1.768-.969 1.864-1.261.096-.291.478-.782.849-1.09 2.271-1.886 2.264-4.852-.018-7.435-.381-.431-.692-.886-.692-1.01s-.623-.849-1.385-1.61c-.762-.762-1.385-1.608-1.385-1.881 0-.273-.41-.652-.912-.841-.531-.2-1.066-.718-1.283-1.24-.204-.492-.901-1.386-1.549-1.986-.648-.6-1.179-1.259-1.179-1.465 0-.206-.415-.547-.923-.757-.507-.211-.923-.57-.923-.799 0-.229-.381-.626-.846-.883-.465-.256-1.469-1.09-2.231-1.851-.761-.762-1.488-1.387-1.615-1.388-.127-.001-.231-.21-.231-.464s-.145-.462-.322-.462c-.177 0-.65-.328-1.051-.729-.401-.401-1.087-.819-1.524-.929-.437-.11-.795-.406-.795-.658s-.549-.677-1.219-.946c-.671-.268-1.299-.736-1.395-1.041-.097-.304-.414-.635-.704-.736-.725-.251-2.645-1.433-2.847-1.753-.091-.144-1.06-.728-2.154-1.299-2.643-1.378-3.422-1.833-3.922-2.293-.23-.212-.64-.385-.911-.385s-.711-.187-.978-.417c-.267-.229-1.247-.672-2.178-.985-.931-.312-1.831-.718-2-.902-.294-.32-2.778-1.14-5.077-1.677-2.406-.561-4.163-1.099-4.327-1.323-.095-.13-1.341-.381-2.769-.556-1.428-.176-3.081-.452-3.673-.613-1.322-.359-14.509-.334-16 .03m96.769 143.522c.703.245 2.561.312 2.422.088-.083-.134-.731-.233-1.44-.219-.709.013-1.151.072-.982.131M98.231 395.605a6.747 6.747 0 0 0 1.692 0c.465-.07.085-.128-.846-.128-.931 0-1.312.058-.846.128" fill="#3cb44c"/><path d="M167.692 196.88c0 .146.346.199.77.118.423-.08.769-.2.769-.265s-.346-.118-.769-.118c-.424 0-.77.12-.77.265m3.693-.146c0 .066.415.18.923.255.507.074.923.021.923-.119 0-.14-.416-.255-.923-.255-.508 0-.923.054-.923.119m50.666.087c-.36.36-.219.763.18.513.211-.133 1.007-.33 1.769-.439l1.385-.197-1.564-.042c-.861-.022-1.657.052-1.77.165m-48.513.354c0 .161.504.532 1.119.824 1.65.783 4.462 3.005 5.669 4.48 1.679 2.05 3.332 4.377 3.703 5.213.188.423.731 1.6 1.207 2.616 1.578 3.368 3.099 7.187 3.614 9.077.248.909.333.986.54.497.144-.34.099-.814-.111-1.149-.196-.314-.356-.84-.356-1.168 0-.329-.184-.782-.409-1.007-.225-.225-.497-.951-.605-1.613-.107-.661-.321-1.283-.475-1.382-.154-.098-.377-.628-.497-1.178-.119-.55-.329-1-.467-1-.137 0-.336-.347-.443-.77-.106-.423-.327-.769-.491-.769-.164 0-.387-.554-.495-1.231-.108-.677-.317-1.23-.465-1.23-.148 0-.268-.212-.268-.472 0-.259-.203-.548-.45-.643-.248-.095-.538-.451-.646-.79-.108-.34-.424-.861-.704-1.158a25.796 25.796 0 0 1-1.277-1.546c-.423-.553-1.244-1.438-1.824-1.967-.58-.53-1.302-1.2-1.605-1.491-1.341-1.286-4.264-2.756-4.264-2.143m-7.858.384c-.112.18-.129.402-.039.492.22.221.821-.168.821-.531 0-.393-.532-.367-.782.039m54.935.133c-.415.501-.316.564.437.275.267-.103.486-.31.486-.461 0-.426-.498-.325-.923.186m8.316-.256c.004.141.593.524 1.308.851.715.327 1.487.855 1.715 1.173.229.318.741.702 1.138.853.397.151.97.662 1.274 1.135.303.473.864 1.204 1.247 1.626.382.421.695.94.695 1.154 0 .462.5.514.769.08.105-.17.043-.308-.136-.308s-.326-.208-.326-.462c0-.253-.161-.461-.359-.461-.197 0-.276-.083-.174-.185.101-.101-.222-.581-.718-1.066-.496-.485-.902-1.095-.902-1.354 0-.26-.256-.472-.568-.472-.312 0-.832-.295-1.154-.655-.322-.361-1.209-.943-1.971-1.295a113.87 113.87 0 0 1-1.615-.755c-.127-.063-.227 0-.223.141m-65.068 1.19c-.377.285-.491.561-.308.744.183.182.561.01 1.016-.463.804-.836.293-1.038-.708-.281m54.752.333c-.507.443-1.303.941-1.769 1.107-.465.166-.846.489-.846.718 0 .229-.241.551-.536.716-.295.165-.435.401-.312.524.123.122.606-.162 1.074-.633.468-.472 1.338-1.166 1.932-1.544 1.157-.734 2.091-1.693 1.649-1.693-.148 0-.684.363-1.192.805m-57.106 1.775a24.99 24.99 0 0 0-1.817 2.044 25.638 25.638 0 0 1-1.276 1.543c-.279.297-.597.949-.707 1.45-.113.515-.528 1.085-.955 1.314-.414.222-.754.647-.754.945 0 .298-.21.751-.466 1.007-.256.256-.55.889-.654 1.407-.103.517-.303.941-.443.941s-.346.484-.457 1.077c-.111.592-.317 1.076-.457 1.076s-.348.624-.462 1.385c-.114.762-.322 1.385-.462 1.385-.139 0-.347.623-.461 1.384-.114.762-.347 1.385-.516 1.385-.17 0-.242.349-.161.776.082.428.029.851-.118.942-.146.09-.266.779-.266 1.531 0 .767-.145 1.366-.33 1.366-.181 0-.299.312-.262.693.038.38-.04.943-.172 1.25-.282.655.066 4.581.426 4.818.136.089.345.916.465 1.836.15 1.155.435 1.876.92 2.326.386.358.794 1.016.906 1.462.24.954 1.933 2.909 2.247 2.594.12-.119-.223-.647-.761-1.173-.537-.525-.978-1.15-.978-1.387 0-.238-.337-.948-.75-1.579-.725-1.108-1.422-3.593-1.845-6.582-.211-1.49.323-4.817 1.375-8.565 1.061-3.783 2.643-8.089 3.618-9.847 2.135-3.849 3.946-6.373 5.902-8.226 1.034-.979 1.508-1.613 1.209-1.615-.27-.003-.962.464-1.538 1.037m52.835 2.196c-.274.274-.498.682-.498.905 0 .224-.208.487-.461.584-.254.097-.462.389-.462.648s-.129.471-.287.471c-.158 0-.384.306-.502.678-.118.373-.405.868-.636 1.099-.232.232-.421.619-.421.861s-.139.439-.308.439c-.169 0-.307.267-.307.594 0 .326-.19.783-.421 1.014-.232.232-.518.726-.637 1.099-.118.373-.359.678-.535.678-.188 0-.241.318-.127.769.111.444.06.769-.121.769-.172 0-.313.208-.313.462s-.154.462-.341.462c-.187 0-.261.207-.163.461.097.254.043.462-.121.462-.164 0-.298.338-.298.751s-.127.829-.281.924c-.155.096-.375.727-.489 1.403-.114.676-.334 1.229-.488 1.229-.326 0-.382 1.335-.069 1.648.251.251 1.217-2.156 1.649-4.109.27-1.223 1.419-4.241 2.108-5.539 2.216-4.174 2.992-5.543 3.606-6.364.403-.538.733-1.081.733-1.206s.23-.481.511-.792c.643-.711.353-1.073-.321-.4m22.579 1.86c0 .096.324.615.72 1.154.395.538 1.279 2.087 1.962 3.441a799.41 799.41 0 0 0 1.718 3.384c.871 1.697 2.007 5.202 2.641 8.154 1.149 5.346 1.274 5.681 1.087 2.929-.091-1.35-.282-2.527-.424-2.615-.141-.088-.359-.976-.483-1.973-.124-.997-.414-2.174-.645-2.615-.23-.442-.419-1.045-.42-1.341-.001-.296-.128-.539-.283-.539-.154 0-.374-.554-.488-1.231-.115-.676-.332-1.23-.483-1.23-.151 0-.362-.346-.468-.77-.106-.423-.307-.769-.447-.769-.139 0-.35-.305-.468-.678-.119-.373-.405-.867-.636-1.099-.232-.231-.421-.688-.421-1.014 0-.326-.154-.593-.341-.593-.187 0-.262-.204-.167-.454.101-.261-.109-.651-.497-.923-.369-.258-.554-.47-.411-.47.143 0 .088-.207-.123-.461-.378-.456-.923-.625-.923-.287m-47.687 16.5c.002.39.205 1.541.45 2.556.688 2.848.078 8.744-1.049 10.136-.145.179-.564.864-.93 1.521-.816 1.464-4.038 5.112-4.515 5.112-.191 0-.532.223-.757.494-.225.271-.746.621-1.157.778-.412.156-.66.372-.553.479.23.23 2.232-.753 3.094-1.52.333-.296.717-.538.854-.538.138 0 .25-.156.25-.346 0-.191.692-1.017 1.539-1.837.846-.82 1.538-1.636 1.538-1.814 0-.178.348-.874.773-1.548.425-.673.675-1.225.554-1.225s-.053-.166.15-.369c.203-.203.369-.676.369-1.051 0-.375.173-.74.385-.81.28-.094.384-1.161.384-3.923 0-2.763-.104-3.83-.384-3.923-.219-.073-.385-.64-.385-1.316 0-.652-.138-1.272-.308-1.377-.171-.106-.305.124-.302.521m16.307 2.633c.004 1.256.091 1.635.303 1.308.394-.61.394-3.077 0-3.077-.17 0-.305.792-.303 1.769m-.235 2.46c-.465.157-.539 3.463-.077 3.463.169 0 .307.416.307.923 0 .508.135.923.3.923.17 0 .22.403.116.923-.118.588-.059.923.161.923.191 0 .347.208.347.462s.146.462.325.462c.18 0 .241.138.136.307-.105.169-.043.308.136.308s.326.208.326.461c0 .254.146.462.325.462.18 0 .257.112.173.248-.085.137.184.503.597.813.413.31.759.787.768 1.059.02.546 3.597 3.599 3.883 3.314.149-.15-2.1-2.471-2.648-2.735-.284-.136-2.175-2.643-2.175-2.883 0-.121-.324-.648-.719-1.172-.874-1.158-1.465-3.302-1.712-6.21-.131-1.549-.296-2.143-.569-2.051m39.637 3.309c-.014.339-.233 1.012-.485 1.497-.253.485-.46 1.059-.46 1.276 0 2.255-5.314 8.2-8.53 9.544-.555.232-1.008.567-1.008.745 0 .468.479.396.923-.139.21-.253.628-.461.929-.461.508 0 .931-.311 3.454-2.539.527-.465 1.072-.846 1.21-.846.139 0 .253-.203.253-.45 0-.248.277-.599.615-.781.339-.181.616-.532.616-.78 0-.247.135-.45.301-.45.166 0 .389-.346.495-.77.106-.423.301-.769.433-.769s.331-.484.443-1.077c.111-.592.325-1.077.476-1.077.328 0 .755-2.556.523-3.134-.095-.238-.172-.151-.188.211m-89.253 9.875c0 .27.277.563.616.652.338.088.615.283.615.432 0 .15.186.272.414.272.228 0 .664.277.971.615.306.339.709.616.896.616.187 0 1.005.354 1.819.788.814.433 1.644.726 1.844.651.361-.135-2.097-1.419-2.742-1.432-.186-.004-.588-.284-.894-.623-.307-.338-.743-.615-.971-.615-.228 0-.414-.138-.414-.308 0-.169-.174-.307-.387-.307-.214 0-.561-.277-.772-.616-.461-.738-.995-.805-.995-.125m57.846 1.97c0 .178.333.451.74.605.406.155.83.429.941.608.231.374.782.442.779.096-.002-.127-.556-.546-1.231-.932-.676-.386-1.229-.556-1.229-.377m-35.174 1.588c-.305.171-1.01.367-1.566.436-.557.069-1.609.336-2.34.594a6.036 6.036 0 0 1-2.739.286c-.776-.1-1.757-.041-2.181.131-.602.245-.135.316 2.163.332 2 .013 3.124-.114 3.538-.4.334-.231 1.262-.516 2.062-.633.799-.118 1.54-.354 1.646-.525.29-.47.035-.567-.583-.221m37.944-.11c0 .288 1.811.985 2.56.985.284 0 .517.154.517.343 0 .205.369.288.923.207.507-.075.923-.021.923.119 0 .14 1.8.254 4 .254 2.522 0 4-.116 4-.315 0-.205-.837-.245-2.397-.115-2.696.225-6.112-.224-8.615-1.133-1.846-.67-1.911-.682-1.911-.345m15.401.553c-1.95.524-2.143.651-1.414.931.295.113.63.054.745-.132.115-.186.797-.432 1.515-.547.717-.115 1.379-.329 1.47-.476.224-.363-.335-.309-2.316.224m-67.324.341c.296.074.538.279.538.456s.27.251.601.165c.33-.086.646-.021.701.145.055.166.512.249 1.015.185 1.021-.131-.458-.707-2.488-.968-.498-.064-.664-.056-.367.017m25.461 36.112c0 .25 1.808.736 2.004.539.062-.062-.363-.262-.945-.445-.582-.182-1.059-.224-1.059-.094m20-.054c0 .187.203.341.451.341.665 0 3.255.919 3.758 1.333 1.943 1.602 3.128 3.385 3.692 5.561l.407 1.567-.138-1.384c-.285-2.848-2.808-5.921-5.621-6.845-.81-.266-1.714-.58-2.01-.699-.318-.127-.539-.075-.539.126m-6.461.648c-.411.266-.411.299 0 .299.253 0 .669-.135.923-.299.41-.265.41-.298 0-.298-.254 0-.67.134-.923.298m-22.001 1.019c-1.58 1.131-3.132 3.234-3.326 4.508-.051.336-.189.707-.306.824-.312.312-.261 3.803.055 3.803.147 0 .33-1.073.407-2.384.173-2.957 1.044-4.569 3.524-6.52 1.103-.867.806-1.062-.354-.231m12.33-.095c3.994 2.559 5.068 8.758 2.454 14.153l-1.231 2.538c-1 2.061-2.814 4.223-4.331 5.16-.587.363-1.068.794-1.068.958 0 1.329 5.436-4.374 5.932-6.224.132-.491.374-.893.539-.893.164 0 .299-.269.299-.597 0-.329.115-.669.255-.756.141-.087.435-.96.654-1.941.219-.981.534-2.129.701-2.552.167-.423.331-1.6.364-2.616.085-2.563 1.049-4.596 3.026-6.381.888-.802 1.468-1.46 1.289-1.462-.499-.005-3.52 3.016-3.52 3.521 0 .245-.194.556-.432.692-.238.135-.48.592-.538 1.015-.091.656-.192.548-.687-.734-.318-.826-.808-1.726-1.088-2-1.37-1.337-2.853-2.496-3.189-2.492-.206.003.051.278.571.611m24.107 8.384c-.061.922-.33 2.307-.632 3.251-.377 1.178-.113 1.74.3.638.35-.936.766-4.274.533-4.274-.097 0-.187.174-.201.385m-39.787 2.308c.376 1.592 1.439 4.538 1.857 5.145.229.334.417.838.417 1.121 0 .283.207.594.461.691.254.098.462.383.462.635 0 .566 3.332 4.025 3.61 3.746.111-.111-.297-.613-.907-1.115-2.005-1.653-3.804-4.905-5.058-9.144-.556-1.879-1.237-2.752-.842-1.079m20.12-.19c0 .429.104.883.231 1.01s.237.323.246.436c.083 1.133 2.174 5.898 2.588 5.898.139 0 .335.326.435.725.306 1.22 4.808 5.137 4.808 4.183 0-.172-.259-.412-.576-.534-2.329-.893-5.264-5.309-6.69-10.067-.638-2.13-1.042-2.77-1.042-1.651m18.163 3.497c-1.669 4.071-4.152 7.448-5.989 8.147-.434.165-.79.44-.79.611 0 .861 3.753-2.28 4.949-4.142 1.243-1.936 2.51-4.705 2.352-5.141-.082-.228-.304-.004-.522.525" fill="#a28780"/><path d="M168.538 196.906c-.465.149-.846.197-.846.107 0-.091-.186-.011-.413.177-.227.189-.487.269-.577.179-.09-.091-.246.049-.347.31-.225.587-.212.587.999-.018.736-.367 1.648-.465 3.586-.384 1.429.059 2.599.027 2.599-.072-.001-.099-.174-.188-.385-.199a74.853 74.853 0 0 1-2.077-.196c-.931-.096-2.073-.053-2.539.096m55.462-.011c-.762.109-1.546.299-1.743.423-.197.123-.428.05-.514-.162-.089-.222-.166-.143-.18.185-.019.437.102.512.514.321 1.27-.588 4.891-.496 6.334.161.771.351 1.523.639 1.672.639.149 0 .607.359 1.017.799.41.439 1.248 1.056 1.86 1.37.613.315 1.196.884 1.296 1.265.1.381.275.599.389.485.326-.326-.754-1.764-1.553-2.068-.397-.151-.909-.534-1.138-.852-.228-.318-.659-.669-.957-.78-.298-.111-.505-.379-.461-.596.052-.258-.209-.362-.767-.304-.465.049-.846-.063-.846-.249s-.13-.257-.289-.159c-.159.098-.431-.067-.606-.367-.174-.299-.321-.375-.326-.167-.007.277-.219.297-.799.076-.434-.165-.953-.281-1.154-.259-.2.023-.987.131-1.749.239m-59.154 1.615c-.627.661-.328.738.48.125.306-.232.445-.483.308-.557-.137-.074-.492.121-.788.432m55.746-.411c-.754.325-4.261 3.106-3.937 3.122.107.005.96-.579 1.897-1.298.936-.719 1.956-1.473 2.267-1.674.625-.405.522-.473-.227-.15m-57.618 2.106c-.297.395-.42.718-.273.718.148 0 .572-.323.943-.718.424-.451.525-.718.273-.718-.22 0-.645.323-.943.718m16.061 1.338c1.072 1.097 2.146 2.376 2.388 2.842.241.465.585.846.765.846.587 0-2.737-3.995-4.183-5.028-.506-.361-.042.242 1.03 1.34m-17.958.411c-1.052 1.092-3.231 4.154-3.231 4.539 0 .141-.173.215-.384.163-.212-.051-.293-.039-.18.027.113.066-.315 1.047-.951 2.18-1.02 1.816-1.732 3.534-3.087 7.445-.635 1.834-1.227 4.119-1.1 4.246.067.067.283-.481.48-1.216.198-.736.554-1.706.791-2.155.237-.449.43-1.072.429-1.384-.002-.79 1.836-5.333 2.518-6.225.309-.404.561-.867.561-1.029 0-.505 3.305-5.266 4.294-6.186.515-.48.937-.999.937-1.154 0-.368-.001-.367-1.077.749m54.592-.11c-.267.281-.584.708-.705.949-.357.713-.921 1.621-1.615 2.598-.549.774-1.853 3.098-3.708 6.609-.224.423-.409.977-.413 1.231-.006.41-.044.41-.339 0-.279-.389-.304-.376-.157.08.183.57-.381 2.135-.7 1.942-.102-.061-.213.462-.245 1.164-.059 1.25-1.385 5.267-1.652 5-.285-.286-.32 8.117-.038 9.159.116.429.222-1.187.235-3.59.023-4.203.218-5.446 1.217-7.755.219-.508.488-1.578.597-2.378.108-.8.317-1.528.464-1.619.146-.09.504-.882.796-1.758.291-.877.994-2.387 1.562-3.356.567-.969 1.032-1.86 1.032-1.981 0-.12.554-1.03 1.231-2.021.677-.992 1.231-1.889 1.231-1.993 0-.105.432-.736.96-1.403.972-1.227 1.138-1.816.247-.878m19.408.846c0 .171.208.484.461.695.254.21.462.503.462.65 0 .147.49.91 1.09 1.695.599.785 1.517 2.344 2.038 3.464.522 1.12 1.188 2.383 1.48 2.806.292.423.777 1.462 1.079 2.308 1.342 3.768 1.678 4.581 1.688 4.083.01-.57-1.279-4.098-2.055-5.622-2.672-5.248-3.603-6.914-4.252-7.614-.418-.451-.76-.908-.76-1.016 0-.108-.277-.548-.616-.978-.338-.43-.615-.642-.615-.471m-52.615 3.102c0 .186.27.589.6.897.33.307.736.901.903 1.32.184.46.311.564.323.264.011-.273-.396-1.019-.903-1.658-.508-.638-.923-1.009-.923-.823m1.847 3.478c-.001.275.206.673.46.884.254.211.462.547.462.748 0 .201.208.634.463.962.438.565.448.554.182-.195-.44-1.24-1.566-2.962-1.567-2.399m1.854 3.807c-.003.338.27 1.031.606 1.538.336.508.612 1.207.614 1.554.001.347.121.763.267.923.537.593 1.685 5.871 2.171 9.985l.236 2 .048-1.596c.027-.878-.17-2.538-.436-3.689-.267-1.151-.408-2.482-.313-2.958.096-.48.05-.788-.104-.693-.153.094-.418-.418-.588-1.139-.584-2.468-2.493-6.991-2.501-5.925m57.239 6.471c-.01.344.193 1.383.451 2.308.744 2.672.948 7.651.365 8.934-.264.581-.569 1.5-.678 2.042-.109.542-.446 1.303-.75 1.692-.303.389-.645 1.007-.76 1.374-.312.995-4.115 4.435-6.039 5.462-.926.495-1.753.998-1.837 1.119-.598.852-6.917 1.862-10.188 1.629-1.472-.106-2.725-.067-2.82.088-.098.159 1.771.285 4.405.297 2.516.01 4.517-.076 4.445-.191-.14-.228 1.459-.752 3.312-1.086.634-.114 1.154-.338 1.154-.497 0-.159.453-.478 1.008-.71 3.206-1.34 8.53-7.288 8.53-9.531 0-.211.223-.83.495-1.375.655-1.314.802-3.75.364-6.026-.548-2.848-1.439-6.226-1.457-5.529m-92.115 4.23c-.535 2.89-.67 5.076-.175 2.837.427-1.927.941-5.434.815-5.56-.063-.063-.351 1.163-.64 2.723m-.201 4.895c-.017.977.954 4.711 1.409 5.413.249.385.368.839.264 1.007-.104.169-.009.269.211.222.22-.046.446.219.503.59.057.371.525 1.087 1.041 1.591.515.504.845 1.066.732 1.249-.122.196.052.332.426.332.347 0 .803.277 1.015.615.211.339.558.616.772.616.213 0 .387.138.387.307 0 .17.172.308.383.308.21 0-.69-1.028-2-2.284-1.313-1.259-2.383-2.544-2.383-2.862 0-.317-.125-.709-.279-.869-.741-.778-1.516-2.654-1.719-4.16-.231-1.724-.743-3.116-.762-2.075m38.33 1.206c-.076.236-.227.983-.336 1.659-.109.677-.512 1.716-.895 2.308-.751 1.162-1.226 2.571-.772 2.29a.645.645 0 0 0 .279-.491c0-.176.275-.705.611-1.177.587-.825 1.66-4.608 1.384-4.883-.074-.074-.196.058-.271.294m17.239 2.724c.19 1.059 1.32 2.909 1.603 2.626.082-.082-.08-.401-.359-.709-.279-.308-.716-1.105-.972-1.771l-.464-1.211.192 1.065m2.263 4.168c1.226 1.476 1.329 1.571.994.918-.174-.34-.641-.893-1.037-1.229-.696-.588-.694-.577.043.311m-23.147.844c-.42.55-1.184 1.45-1.698 2-.515.55-.845 1-.735 1 .11 0 1.005-.9 1.989-2 .983-1.1 1.658-2 1.498-2-.16 0-.634.45-1.054 1m24.747 1.167c.285.167 1.11.889 1.835 1.606.724.718 1.333 1.235 1.352 1.15.077-.335 2.281 1.083 2.371 1.527.081.398.129.39.304-.055.146-.369-.011-.646-.523-.923-.402-.217-1.378-.737-2.168-1.155-.79-.419-1.711-1.146-2.045-1.616-.335-.47-.842-.85-1.126-.845-.485.009-.485.028 0 .311m-28.791 2.411c-.492.543-.491.589.02.785.298.115.442.108.32-.014s.007-.475.288-.785c.28-.31.371-.564.202-.564-.169 0-.543.26-.83.578m-22.513.327c.298.329.939.686 1.423.792.485.107 1.342.507 1.906.89.701.475 1.216.621 1.626.461.362-.142.425-.244.159-.257-.453-.022-2.329-.814-4.454-1.881-1.185-.596-1.195-.596-.66-.005m20.879.57a.44.44 0 0 0-.143.598c.158.256.337.184.602-.239.387-.62.191-.773-.459-.359m-2.016.771c-.465.184-.846.45-.846.591 0 .141.415.041.923-.221.575-.298.923-.352.923-.144 0 .184.141.247.313.141.324-.201.12-.791-.254-.734-.117.018-.594.183-1.059.367m41 .831c.254.164.808.287 1.231.273l.769-.026-.769-.247c-1.186-.379-1.819-.379-1.231 0m-54.263.236c-.104.168.161.226.626.137.443-.085.729-.03.635.121-.155.251.295.341 2.31.463.38.023 1.315-.096 2.077-.265 1.329-.294 1.292-.305-.924-.268-1.269.021-2.811-.078-3.426-.221-.67-.154-1.191-.141-1.298.033m19.537 36.39c-.4.333-.988.605-1.308.605-.32 0-.581.153-.581.341 0 .187-.215.258-.478.157s-.405-.066-.316.078c.088.143-.248.625-.748 1.071-1.079.961-2.458 3.065-2.458 3.75 0 .267-.114.415-.252.33-.139-.086-.184.287-.1.828l.153.984.25-1.231c.616-3.028 4.111-6.528 6.631-6.64.325-.014.391-.088.162-.18-.213-.086-.308-.283-.213-.437.259-.419.066-.33-.742.344m1.495-.323c0 .327 4.693.588 5.044.28.152-.132-.021-.163-.384-.068s-.66.036-.66-.131c0-.168-.896-.309-2-.316-1.1-.006-2 .1-2 .235m20-.051c0 .139-.694.441-1.542.672-.848.231-1.754.654-2.012.94-.341.376-.021.304 1.157-.263 1.164-.559 2.308-.823 4.013-.923 2.89-.171 3.177-.678.384-.678-1.1 0-2 .114-2 .252m-13.036 1.458c.979.474 2.002 1.307 2.692 2.193.612.786 1.113 1.311 1.113 1.168 0-.144-.287-.567-.637-.941-.351-.373-.676-.936-.722-1.25-.046-.315-.177-.533-.291-.485-.114.047-.805-.264-1.536-.693-.731-.428-1.525-.774-1.764-.767-.239.006.276.355 1.145.775m19.694-.195c.7.318 1.877 1.107 2.615 1.754 1.075.941 1.189.993.573.262-.423-.502-.874-.96-1.002-1.018-.128-.057-.16-.221-.072-.364.089-.143-.001-.36-.199-.483-.225-.139-.278-.089-.141.133.121.195.073.355-.106.355s-.326-.11-.326-.246c0-.135-.46-.412-1.022-.615-1.557-.563-1.752-.428-.32.222m-11.512 1.001c.047.225-.121.362-.377.305-.253-.057-.357.001-.23.129.128.127.002.485-.278.795-.83.917-.297.641.63-.326.552-.576.732-.964.511-1.1-.192-.119-.303-.033-.256.197m-1.865 2.882c-.516 1.132-.417 1.373.14.344.26-.48.416-.931.346-1.001-.071-.07-.289.225-.486.657m17.585-.013c.239.508.523 1.131.632 1.385.109.253.123.069.03-.411-.121-.628-.065-.808.2-.645.239.148.286.096.135-.148-.128-.207-.308-.3-.402-.206-.093.093-.363-.071-.599-.364-.363-.451-.362-.39.004.389m-19.821.93c.526 1.651.656 1.856.491.772-.09-.587-.302-1.207-.473-1.378-.209-.208-.215-.01-.018.606m21.226 1.762l-.036 1-.235-.923c-.187-.734-.238-.545-.25.923-.009 1.225.069 1.639.233 1.231.232-.574.258-.564.398.154.083.423.17-.166.193-1.308.023-1.142-.028-2.077-.112-2.077-.085 0-.171.45-.191 1m-19.879 1.154c0 .762.06 1.073.133.692a4.4 4.4 0 0 0 0-1.384c-.073-.381-.133-.069-.133.692m-.628 0c0 .592.063.835.141.539a2.54 2.54 0 0 0 0-1.077c-.078-.297-.141-.054-.141.538m-19.532 1.386c-.096.506-.067.99.065 1.075.133.085.341.614.463 1.176.122.563.275.97.339.905.064-.064-.065-1.008-.287-2.097-.35-1.716-.427-1.857-.58-1.059m18.999 1.076c-.118.699-.15 1.336-.072 1.415.079.079.236-.433.349-1.138.113-.706.145-1.343.071-1.416-.073-.074-.23.439-.348 1.139m1.214-.589c-.114.184-.053.489.136.677.251.251.342.163.342-.335 0-.742-.16-.857-.478-.342m19.119.358c-.06.211-.273.987-.474 1.724-.2.737-.447 1.556-.549 1.82-.111.289-.056.401.136.282.176-.109.406-.582.51-1.051.104-.468.315-1.371.469-2.006.252-1.039.173-1.702-.092-.769m-21.171 3.44c-.25.763-.343 1.316-.205 1.231.274-.169.937-2.341.767-2.511-.058-.058-.311.518-.562 1.28m-16.85.347c.261 1.161 1.795 4.379 2.209 4.634.136.084-.236-.79-.828-1.942-.591-1.152-1.075-2.398-1.076-2.769-.001-.37-.125-.75-.276-.844-.159-.098-.172.29-.029.921m36.008 2.071c-.232.543-.532 1.23-.668 1.526-.136.297-.193.539-.125.539.218 0 1.507-2.76 1.359-2.909-.08-.08-.334.3-.566.844m-20.255.229c-.205.328-.367.772-.36.986.006.213.225-.005.485-.485.541-.998.439-1.405-.125-.501m-1.323 2.528c-.377.55-1.182 1.553-1.79 2.229l-1.106 1.229 1.031-.921c.98-.877 3.009-3.537 2.697-3.537-.081 0-.456.45-.832 1m7.514-.525c0 .247.067.381.149.299.082-.082.344.091.581.385.39.481.4.467.106-.142-.412-.852-.836-1.127-.836-.542m11.678 1.822c-.723.937-1.163 1.763-.993 1.868.168.104.267.005.22-.219-.046-.225.122-.362.377-.305.254.057.359 0 .233-.126-.126-.127.091-.657.483-1.18.814-1.085 1.21-1.72 1.072-1.718-.053 0-.679.757-1.392 1.68m-10.374-.125c.23.51 2.87 2.904 2.998 2.72.046-.067-.654-.807-1.557-1.643-.903-.836-1.552-1.32-1.441-1.077m-18.859 1.341c.809.776 1.605 1.41 1.769 1.41.165 0 .265.17.222.378-.042.207.235.424.616.483.38.058.692-.043.692-.224s-.18-.329-.4-.329c-.22 0-1.293-.704-2.385-1.564l-1.984-1.563 1.47 1.409m5.844 1.355c-.546.284-.996.621-1 .748-.013.45.589.22 1.407-.539.961-.89.931-.905-.407-.209m16.742.552c.09.234.356.426.592.426.64 0 .518-.52-.164-.698-.415-.109-.543-.028-.428.272m2.79-.285c-.64.168-.724.711-.11.711.236 0 .508-.207.606-.461.097-.254.147-.446.11-.426a6.84 6.84 0 0 1-.606.176" fill="#8d6e66"/><path d="M65.692 122.925c.704.245 2.561.312 2.422.088-.083-.134-.731-.233-1.44-.219-.709.013-1.151.072-.982.131m261.774.065c.467.071 1.16.069 1.538-.004.379-.073-.004-.131-.85-.129-.846.003-1.156.062-.688.133M34.462 350.905c0 .582.106 1.124.236 1.205.13.08.185-.396.121-1.059-.141-1.488-.357-1.576-.357-.146m170.846 34.23c.296.078.78.078 1.077 0 .296-.077.053-.141-.539-.141-.592 0-.834.064-.538.141m89.696 12.006c.382.073.936.07 1.23-.007.295-.077-.019-.137-.696-.133-.676.003-.917.066-.534.14" fill="#7cc820"/><path d="M65.692 122.925c.704.245 2.561.312 2.422.088-.083-.134-.731-.233-1.44-.219-.709.013-1.151.072-.982.131m261.774.065c.467.071 1.16.069 1.538-.004.379-.073-.004-.131-.85-.129-.846.003-1.156.062-.688.133M34.462 350.905c0 .582.106 1.124.236 1.205.13.08.185-.396.121-1.059-.141-1.488-.357-1.576-.357-.146m170.846 34.23c.296.078.78.078 1.077 0 .296-.077.053-.141-.539-.141-.592 0-.834.064-.538.141m89.696 12.006c.382.073.936.07 1.23-.007.295-.077-.019-.137-.696-.133-.676.003-.917.066-.534.14" fill="#7cc820"/><path d="M65.692 122.925c.704.245 2.561.312 2.422.088-.083-.134-.731-.233-1.44-.219-.709.013-1.151.072-.982.131m261.774.065c.467.071 1.16.069 1.538-.004.379-.073-.004-.131-.85-.129-.846.003-1.156.062-.688.133M34.462 350.905c0 .582.106 1.124.236 1.205.13.08.185-.396.121-1.059-.141-1.488-.357-1.576-.357-.146m170.846 34.23c.296.078.78.078 1.077 0 .296-.077.053-.141-.539-.141-.592 0-.834.064-.538.141m89.696 12.006c.382.073.936.07 1.23-.007.295-.077-.019-.137-.696-.133-.676.003-.917.066-.534.14" fill="#7cc820"/></g></svg>